<svg xmlns="http://www.w3.org/2000/svg" xmlns:xlink="http://www.w3.org/1999/xlink" width="1920" zoomAndPan="magnify" viewBox="0 0 1440 809.999993" height="1080" preserveAspectRatio="xMidYMid meet" version="1.0"><path fill="#000000" d="M 802.699219 332.652344 C 801.828125 332.640625 800.941406 332.703125 800.054688 332.871094 L 710.578125 349.941406 L 695.675781 349.941406 L 714.875 372.261719 C 723.0625 381.773438 722.117188 395.78125 712.777344 404.148438 C 703.910156 412.09375 690.167969 411.9375 681.492188 403.792969 L 659.820312 383.4375 C 658.914062 382.589844 658.457031 381.433594 658.457031 380.289062 C 658.457031 379.214844 658.847656 378.148438 659.652344 377.308594 C 661.300781 375.574219 664.066406 375.5 665.824219 377.140625 L 687.476562 397.476562 C 692.871094 402.53125 701.421875 402.648438 706.929688 397.714844 C 712.753906 392.496094 713.304688 383.789062 708.226562 377.882812 L 681.609375 346.929688 L 676.359375 341.695312 C 665.953125 331.359375 649.65625 329.761719 637.417969 337.867188 L 625.515625 345.742188 C 613.375 353.789062 606.082031 367.324219 606.082031 381.8125 L 606.082031 445.316406 C 606.082031 464.472656 621.714844 480 641 480 L 680.382812 480 C 677.625 476.367188 675.917969 471.894531 675.917969 466.996094 C 675.917969 459.867188 679.421875 453.605469 684.765625 449.652344 C 679.421875 445.699219 675.917969 439.4375 675.917969 432.3125 C 675.917969 420.339844 685.683594 410.636719 697.738281 410.636719 L 733.714844 410.636719 L 818.246094 421.609375 C 825.414062 422.539062 831.984375 417.515625 832.925781 410.398438 C 833.859375 403.28125 828.808594 396.738281 821.640625 395.800781 L 736.289062 384.742188 L 737.023438 375.953125 L 737.023438 371.382812 L 805 358.425781 C 812.097656 357.074219 816.746094 350.25 815.382812 343.203125 C 814.191406 337.035156 808.785156 332.726562 802.699219 332.652344 Z M 697.738281 419.304688 C 690.511719 419.304688 684.644531 425.132812 684.644531 432.3125 C 684.644531 439.492188 690.511719 445.316406 697.738281 445.316406 L 732.65625 445.316406 C 739.886719 445.316406 745.75 439.492188 745.75 432.3125 C 745.75 425.132812 739.886719 419.304688 732.65625 419.304688 Z M 697.738281 453.988281 C 690.511719 453.988281 684.644531 459.816406 684.644531 466.996094 C 684.644531 474.171875 690.511719 480 697.738281 480 L 723.929688 480 C 731.15625 480 737.023438 474.171875 737.023438 466.996094 C 737.023438 459.816406 731.15625 453.988281 723.929688 453.988281 Z M 697.738281 453.988281 " fill-opacity="1" fill-rule="nonzero"/></svg>