<svg xmlns="http://www.w3.org/2000/svg" xmlns:xlink="http://www.w3.org/1999/xlink" width="1920" zoomAndPan="magnify" viewBox="0 0 1440 809.999993" height="1080" preserveAspectRatio="xMidYMid meet" version="1.0"><defs><clipPath id="86e34a0891"><path d="M 637 289.5 L 802 289.5 L 802 517 L 637 517 Z M 637 289.5 " clip-rule="nonzero"/></clipPath></defs><g clip-path="url(#86e34a0891)"><path fill="#000000" d="M 801.890625 344.03125 L 801.890625 467.578125 C 801.890625 487.574219 790.523438 504.8125 772.214844 512.570312 C 753.90625 520.355469 733.710938 516.507812 719.457031 502.570312 L 697.378906 480.964844 L 640.335938 423.589844 C 638.625 421.835938 637.738281 419.539062 637.851562 417.066406 C 637.96875 414.625 639.082031 412.382812 640.964844 410.804688 C 644.335938 408.015625 649.5625 408.476562 652.90625 411.839844 L 689.292969 448.46875 C 690.953125 450.109375 693.40625 450.597656 695.519531 449.707031 C 697.664062 448.816406 699.0625 446.71875 699.0625 444.390625 L 699.0625 321.046875 C 699.0625 318.605469 700.0625 316.335938 701.863281 314.667969 C 703.660156 313.03125 706.03125 312.253906 708.488281 312.484375 C 712.800781 312.886719 716.199219 316.9375 716.199219 321.679688 L 716.199219 395.75 C 716.199219 398.9375 718.742188 401.496094 721.914062 401.496094 C 725.054688 401.496094 727.625 398.9375 727.625 395.75 L 727.625 298.0625 C 727.625 293.320312 731.453125 289.441406 736.195312 289.441406 C 740.90625 289.441406 744.765625 293.320312 744.765625 298.0625 L 744.765625 395.75 C 744.765625 398.9375 747.304688 401.496094 750.476562 401.496094 C 753.617188 401.496094 756.1875 398.9375 756.1875 395.75 L 756.1875 321.046875 C 756.1875 316.304688 760.015625 312.425781 764.757812 312.425781 C 769.472656 312.425781 773.328125 316.304688 773.328125 321.046875 L 773.328125 395.75 C 773.328125 398.9375 775.871094 401.496094 779.039062 401.496094 C 782.183594 401.496094 784.753906 398.9375 784.753906 395.75 L 784.753906 344.03125 C 784.753906 339.292969 788.578125 335.414062 793.320312 335.414062 C 798.035156 335.414062 801.890625 339.292969 801.890625 344.03125 Z M 801.890625 344.03125 " fill-opacity="1" fill-rule="nonzero"/></g></svg>