<svg xmlns="http://www.w3.org/2000/svg" xmlns:xlink="http://www.w3.org/1999/xlink" width="1920" zoomAndPan="magnify" viewBox="0 0 1440 809.999993" height="1080" preserveAspectRatio="xMidYMid meet" version="1.0"><path fill="#000000" d="M 796.640625 424.230469 L 796.640625 330.636719 C 796.640625 324.171875 791.542969 319.066406 785.085938 319.066406 L 731.726562 319.066406 C 725.269531 319.066406 720.167969 324.171875 720.167969 330.636719 L 720.167969 334.722656 C 720.167969 341.1875 725.269531 346.292969 731.726562 346.292969 L 758.234375 346.292969 C 758.574219 346.292969 758.574219 346.292969 758.914062 346.292969 C 764.351562 346.972656 774.550781 352.078125 774.210938 364.671875 C 773.871094 378.964844 765.03125 384.070312 759.933594 384.75 C 756.875 385.769531 753.476562 386.113281 750.078125 386.792969 C 733.085938 389.175781 712.011719 392.578125 714.050781 454.179688 C 714.050781 456.558594 712.351562 458.601562 709.972656 458.601562 C 707.59375 458.601562 705.554688 456.902344 705.554688 454.519531 C 703.855469 400.066406 720.507812 385.769531 736.484375 381.007812 C 735.464844 380.324219 734.785156 379.304688 733.765625 378.285156 C 730.367188 382.367188 725.269531 385.089844 719.488281 385.089844 L 716.089844 385.089844 C 711.332031 385.089844 706.914062 383.046875 703.515625 380.324219 C 700.457031 386.113281 694.339844 389.855469 687.542969 389.855469 L 684.144531 389.855469 C 679.386719 389.855469 674.96875 387.8125 671.570312 385.089844 C 668.507812 390.875 662.390625 394.621094 655.59375 394.621094 L 652.195312 394.621094 C 649.476562 394.621094 646.757812 393.9375 644.378906 392.917969 L 644.378906 437.84375 L 667.828125 487.191406 C 674.628906 491.957031 719.148438 519.863281 771.488281 487.53125 L 771.488281 463.027344 C 771.488281 461.324219 772.507812 459.625 774.550781 458.941406 C 798 450.773438 796.640625 424.230469 796.640625 424.230469 Z M 796.640625 424.230469 " fill-opacity="1" fill-rule="nonzero"/><path fill="#000000" d="M 687.542969 381.347656 C 692.980469 381.347656 697.398438 376.921875 697.398438 371.476562 L 697.398438 304.773438 C 697.398438 299.328125 692.980469 294.902344 687.542969 294.902344 L 684.144531 294.902344 C 678.707031 294.902344 674.289062 299.328125 674.289062 304.773438 L 674.289062 371.476562 C 674.289062 376.921875 678.707031 381.347656 684.144531 381.347656 Z M 687.542969 381.347656 " fill-opacity="1" fill-rule="nonzero"/><path fill="#000000" d="M 729.347656 310.558594 L 729.347656 300.007812 C 729.347656 294.5625 724.929688 290.136719 719.488281 290.136719 L 716.089844 290.136719 C 710.652344 290.136719 706.234375 294.5625 706.234375 300.007812 L 706.234375 366.710938 C 706.234375 372.15625 710.652344 376.582031 716.089844 376.582031 L 719.488281 376.582031 C 724.929688 376.582031 729.347656 372.15625 729.347656 366.710938 L 729.347656 354.460938 C 719.488281 353.441406 711.332031 344.929688 711.332031 334.382812 L 711.332031 330.296875 C 711.671875 320.425781 719.488281 311.917969 729.347656 310.558594 Z M 729.347656 310.558594 " fill-opacity="1" fill-rule="nonzero"/><path fill="#000000" d="M 642 313.960938 L 642 375.902344 C 642 381.347656 646.417969 385.769531 651.855469 385.769531 L 655.253906 385.769531 C 660.691406 385.769531 665.109375 381.347656 665.109375 375.902344 L 665.109375 313.960938 C 665.109375 308.515625 660.691406 304.089844 655.253906 304.089844 L 651.855469 304.089844 C 646.417969 303.75 642 308.175781 642 313.960938 Z M 642 313.960938 " fill-opacity="1" fill-rule="nonzero"/><path fill="#000000" d="M 751.4375 290.136719 L 748.039062 290.136719 C 742.601562 290.136719 738.183594 294.5625 738.183594 300.007812 L 738.183594 310.21875 L 761.632812 310.21875 C 761.632812 310.21875 761.632812 309.875 761.632812 309.875 L 761.632812 300.007812 C 761.292969 294.5625 756.875 290.136719 751.4375 290.136719 Z M 751.4375 290.136719 " fill-opacity="1" fill-rule="nonzero"/><path fill="#000000" d="M 747.699219 376.582031 L 751.097656 376.582031 C 756.535156 376.582031 760.953125 372.15625 760.953125 366.710938 L 760.953125 358.542969 C 760.953125 357.863281 758.574219 354.800781 757.554688 354.800781 L 737.503906 354.800781 L 737.503906 366.710938 C 737.84375 372.15625 742.261719 376.582031 747.699219 376.582031 Z M 747.699219 376.582031 " fill-opacity="1" fill-rule="nonzero"/></svg>